<?xml version="1.0" standalone="no"?>
<!DOCTYPE svg PUBLIC "-//W3C//DTD SVG 20010904//EN"
 "http://www.w3.org/TR/2001/REC-SVG-20010904/DTD/svg10.dtd">
<svg version="1.0" xmlns="http://www.w3.org/2000/svg"
 width="16.000000pt" height="16.000000pt" viewBox="0 0 16.000000 16.000000"
 preserveAspectRatio="xMidYMid meet">

<g transform="translate(0.000000,16.000000) scale(0.100000,-0.100000)"
fill="#000000" stroke="none">
<path d="M4 147 c-3 -8 -4 -43 -2 -78 l3 -64 75 0 75 0 0 75 0 75 -73 3 c-55
2 -74 -1 -78 -11z m125 -39 c14 -25 14 -29 -5 -55 -13 -18 -32 -29 -51 -31
-37 -4 -48 17 -28 55 10 19 11 29 3 34 -14 9 21 29 47 26 10 -1 26 -14 34 -29z"/>
<path d="M73 85 c-2 -25 1 -35 12 -35 16 0 31 43 20 59 -13 22 -30 10 -32 -24z"/>
</g>
</svg>
